<svg
    width="10"
    height="20"
    viewBox="0 0 10 20"
    fill="none"
    xmlns="http://www.w3.org/2000/svg"
>
    <path
        d="M9.29878 8H7.74898H7.19548V7.35484V5.35484V4.70968H7.74898H8.91133C9.21575 4.70968 9.46483 4.45161 9.46483 4.06452V0.645161C9.46483 0.290323 9.24343 0 8.91133 0H6.89106C4.70474 0 3.18262 1.80645 3.18262 4.48387V7.29032V7.93548H2.62912H0.747223C0.359774 7.93548 0 8.29032 0 8.80645V11.129C0 11.5806 0.304424 12 0.747223 12H2.57377H3.12727V12.6452V19.129C3.12727 19.5806 3.43169 20 3.87449 20H6.47593C6.64198 20 6.78036 19.9032 6.89106 19.7742C7.00176 19.6452 7.08478 19.4194 7.08478 19.2258V12.6774V12.0323H7.66596H8.91133C9.2711 12.0323 9.54785 11.7742 9.6032 11.3871V11.3548V11.3226L9.99065 9.09677C10.0183 8.87097 9.99065 8.6129 9.8246 8.35484C9.76925 8.19355 9.52018 8.03226 9.29878 8Z"
        fill="white"
    />
</svg>